<?xml version="1.0" standalone="no"?>
<!DOCTYPE svg PUBLIC "-//W3C//DTD SVG 20010904//EN"
 "http://www.w3.org/TR/2001/REC-SVG-20010904/DTD/svg10.dtd">
<svg version="1.0" xmlns="http://www.w3.org/2000/svg"
 width="729.000000pt" height="729.000000pt" viewBox="0 0 729.000000 729.000000"
 preserveAspectRatio="xMidYMid meet">
<metadata>
Created by potrace 1.11, written by Peter Selinger 2001-2013
</metadata>
<g transform="translate(0.000000,729.000000) scale(0.100000,-0.100000)"
fill="#000000" stroke="none">
<path d="M3749 4916 c-2 -2 -28 -7 -57 -10 -29 -3 -63 -8 -75 -11 -12 -3 -43
-7 -68 -9 -25 -3 -57 -7 -70 -10 -13 -3 -40 -8 -59 -10 -19 -3 -58 -18 -86
-33 -29 -15 -85 -45 -125 -67 -41 -21 -78 -42 -84 -46 -5 -4 -42 -24 -81 -44
-39 -19 -79 -44 -90 -53 -10 -10 -73 -85 -139 -168 -66 -82 -128 -159 -138
-170 -10 -11 -33 -39 -50 -62 -24 -33 -82 -74 -243 -172 l-210 -129 -100 -12
c-54 -6 -116 -13 -138 -16 -21 -2 -50 -6 -65 -8 -14 -3 -71 -10 -126 -16 -55
-6 -111 -13 -125 -15 -14 -2 -54 -7 -90 -10 -36 -4 -72 -8 -80 -10 -16 -3
-102 -14 -160 -20 -19 -2 -58 -7 -86 -10 l-51 -7 -18 -61 c-10 -34 -23 -68
-28 -74 -7 -9 -5 -13 7 -14 9 -1 19 -2 24 -3 4 -1 52 -6 107 -10 55 -5 109
-10 120 -12 11 -2 56 -6 100 -9 44 -3 94 -7 110 -10 17 -2 70 -7 120 -11 82
-5 108 -13 301 -91 l212 -84 108 -121 c64 -70 169 -171 254 -241 80 -67 218
-186 307 -265 89 -79 179 -152 200 -162 21 -10 108 -53 193 -95 l155 -76 140
6 c176 8 232 12 270 20 17 3 96 19 176 35 80 16 163 32 185 36 21 3 41 7 44 9
3 2 26 6 50 10 105 15 103 13 377 283 l261 257 47 175 c26 96 51 178 54 183 8
9 26 13 102 22 30 4 56 8 59 10 3 2 34 6 70 10 36 4 72 9 81 10 9 2 40 6 70
10 30 4 56 8 59 10 3 1 32 6 65 9 33 4 89 11 125 17 36 5 76 12 90 14 14 2 48
6 75 10 49 6 94 12 145 20 14 2 48 7 75 11 28 3 53 8 58 11 4 2 7 35 7 73 l0
69 -42 11 c-24 6 -50 13 -58 15 -8 2 -26 6 -40 9 -27 5 -287 66 -495 116 -71
18 -137 33 -145 35 -8 2 -46 11 -85 20 -78 18 -99 23 -135 30 -14 3 -54 13
-88 22 l-64 18 -40 75 c-21 41 -67 128 -101 193 l-61 118 -178 153 c-186 160
-186 160 -348 208 -47 14 -130 40 -185 56 -55 17 -120 34 -145 37 -24 4 -47 8
-50 10 -9 5 -97 15 -101 11z"/>
</g>
</svg>
